<svg aria-hidden="true" style="position: absolute; width: 0; height: 0; overflow: hidden;" version="1.1" xmlns="http://www.w3.org/2000/svg" xmlns:xlink="http://www.w3.org/1999/xlink">
<defs>
<symbol id="icon-book-open" viewBox="0 0 32 32">
<path stroke-linejoin="round" stroke-linecap="round" stroke-miterlimit="4" stroke-width="3" d="M29.333 8.267c0-1.493 0-2.24-0.291-2.811-0.256-0.502-0.664-0.91-1.165-1.165-0.571-0.291-1.317-0.291-2.811-0.291h-0.533c-2.987 0-4.48 0-5.621 0.581-1.004 0.511-1.819 1.327-2.331 2.331-0.581 1.141-0.581 2.634-0.581 5.621v15.467l0.133-0.2c0.926-1.389 1.389-2.084 2.001-2.587 0.542-0.445 1.166-0.779 1.837-0.983 0.758-0.23 1.593-0.23 3.262-0.23h1.833c1.494 0 2.24 0 2.811-0.291 0.502-0.256 0.91-0.664 1.165-1.165 0.291-0.57 0.291-1.317 0.291-2.811v-11.467z"></path>
<path stroke-linejoin="round" stroke-linecap="round" stroke-miterlimit="4" stroke-width="3" d="M2.667 8.267c0-1.493 0-2.24 0.291-2.811 0.256-0.502 0.664-0.91 1.165-1.165 0.57-0.291 1.317-0.291 2.811-0.291h0.533c2.987 0 4.48 0 5.621 0.581 1.004 0.511 1.819 1.327 2.331 2.331 0.581 1.141 0.581 2.634 0.581 5.621v15.467l-0.133-0.2c-0.926-1.389-1.389-2.084-2.001-2.587-0.542-0.445-1.166-0.779-1.837-0.983-0.758-0.23-1.593-0.23-3.262-0.23h-1.833c-1.493 0-2.24 0-2.811-0.291-0.502-0.256-0.91-0.664-1.165-1.165-0.291-0.57-0.291-1.317-0.291-2.811v-11.467z"></path>
</symbol>
<symbol id="icon-star" viewBox="0 0 32 32">
<path stroke-linejoin="miter" stroke-linecap="butt" stroke-miterlimit="4" stroke-width="2.4" d="M12.4 9.394l3.6-6.822 3.6 6.822c0.318 0.603 0.899 1.025 1.571 1.141l7.601 1.315-5.376 5.532c-0.475 0.489-0.697 1.171-0.6 1.846l1.098 7.635-6.922-3.404c-0.612-0.301-1.329-0.301-1.941 0l-6.922 3.404 1.098-7.635c0.097-0.675-0.125-1.357-0.6-1.846l-5.376-5.532 7.601-1.315c0.672-0.116 1.252-0.538 1.571-1.141zM29.035 11.579v0zM7.767 27.031c0 0 0 0 0 0h-0z"></path>
</symbol>
<symbol id="icon-user" viewBox="0 0 32 32">
<path d="M16.069 0.313c-8.665 0-15.687 7.023-15.687 15.687s7.023 15.688 15.687 15.688 15.687-7.023 15.687-15.688c0-8.665-7.023-15.687-15.687-15.687zM16.069 1.62c7.929 0 14.38 6.451 14.38 14.38 0 3.488-1.25 6.69-3.324 9.183-1.434-0.599-4.818-1.773-6.913-2.392-0.179-0.056-0.207-0.065-0.207-0.809 0-0.614 0.253-1.233 0.499-1.756 0.267-0.569 0.583-1.525 0.697-2.383 0.318-0.369 0.751-1.097 1.029-2.484 0.244-1.222 0.13-1.667-0.032-2.085-0.017-0.044-0.035-0.087-0.047-0.131-0.061-0.287 0.023-1.776 0.232-2.931 0.144-0.793-0.037-2.479-1.129-3.873-0.689-0.882-2.008-1.963-4.417-2.114l-1.321 0.001c-2.368 0.149-3.688 1.231-4.378 2.113-1.091 1.395-1.273 3.080-1.129 3.873 0.211 1.156 0.294 2.645 0.234 2.926-0.013 0.049-0.031 0.093-0.049 0.137-0.161 0.418-0.276 0.862-0.031 2.085 0.277 1.387 0.71 2.115 1.029 2.484 0.112 0.858 0.429 1.814 0.697 2.383 0.195 0.416 0.287 0.982 0.287 1.783 0 0.744-0.028 0.753-0.195 0.806-2.166 0.64-5.615 1.886-6.9 2.449-2.115-2.504-3.393-5.737-3.393-9.263-0-7.929 6.451-14.38 14.38-14.38zM6.030 26.282c1.472-0.601 4.407-1.648 6.335-2.217 1.121-0.354 1.121-1.298 1.121-2.056 0-0.629-0.043-1.556-0.411-2.339-0.253-0.537-0.541-1.457-0.605-2.178-0.014-0.169-0.093-0.324-0.221-0.435-0.185-0.162-0.562-0.756-0.802-1.953-0.19-0.948-0.11-1.155-0.032-1.356 0.033-0.086 0.065-0.17 0.091-0.265 0.157-0.574-0.018-2.459-0.208-3.504-0.083-0.454 0.022-1.746 0.872-2.834 0.762-0.975 1.916-1.518 3.388-1.612l1.24-0.001c1.512 0.095 2.666 0.638 3.429 1.613 0.85 1.088 0.954 2.379 0.871 2.834-0.189 1.045-0.365 2.93-0.208 3.503 0.027 0.096 0.057 0.18 0.091 0.266 0.078 0.2 0.158 0.408-0.031 1.356-0.24 1.198-0.618 1.791-0.803 1.953-0.126 0.111-0.206 0.267-0.221 0.435-0.063 0.721-0.351 1.641-0.604 2.178-0.29 0.616-0.623 1.436-0.623 2.313 0 0.758 0 1.702 1.132 2.059 1.845 0.545 4.794 1.558 6.351 2.171-2.601 2.575-6.174 4.168-10.112 4.168-3.903 0-7.445-1.565-10.040-4.098z"></path>
</symbol>
<symbol id="icon-close" viewBox="0 0 32 32">
<path stroke-linejoin="round" stroke-linecap="round" stroke-miterlimit="4" stroke-width="2.5" d="M24 8l-16 16"></path>
<path stroke-linejoin="round" stroke-linecap="round" stroke-miterlimit="4" stroke-width="2.5" d="M8 8l16 16"></path>
</symbol>
<symbol id="icon-log-in" viewBox="0 0 32 32">
<path stroke-linejoin="round" stroke-linecap="round" stroke-miterlimit="4" stroke-width="3.2" d="M20 4h1.6c2.24 0 3.36 0 4.216 0.436 0.753 0.383 1.364 0.995 1.748 1.748 0.436 0.856 0.436 1.976 0.436 4.216v11.2c0 2.24 0 3.36-0.436 4.216-0.384 0.753-0.995 1.364-1.748 1.748-0.856 0.436-1.976 0.436-4.216 0.436h-1.6"></path>
<path stroke-linejoin="round" stroke-linecap="round" stroke-miterlimit="4" stroke-width="3.2" d="M13.333 9.333l6.667 6.667M20 16l-6.667 6.667M20 16h-16"></path>
</symbol>
<symbol id="icon-heart" viewBox="0 0 32 32">
<path stroke-linejoin="round" stroke-linecap="round" stroke-miterlimit="4" stroke-width="2.4615" d="M27.787 6.147c-0.681-0.681-1.49-1.222-2.38-1.591s-1.844-0.559-2.807-0.559c-0.963 0-1.917 0.19-2.807 0.559s-1.698 0.909-2.38 1.591l-1.413 1.413-1.413-1.413c-1.376-1.376-3.241-2.148-5.187-2.148s-3.811 0.773-5.187 2.148c-1.376 1.376-2.148 3.241-2.148 5.187s0.773 3.811 2.148 5.187l11.787 11.787 11.787-11.787c0.681-0.681 1.222-1.49 1.591-2.379s0.559-1.844 0.559-2.807-0.19-1.917-0.559-2.807c-0.369-0.89-0.909-1.699-1.591-2.38z"></path>
</symbol>
<symbol id="icon-eye-off" viewBox="0 0 32 32">
<path stroke-linejoin="round" stroke-linecap="round" stroke-miterlimit="4" stroke-width="3.2" d="M23.92 23.92c-2.279 1.737-5.055 2.7-7.92 2.747-9.333 0-14.667-10.667-14.667-10.667 1.659-3.091 3.959-5.791 6.747-7.92M13.2 5.653c0.918-0.215 1.857-0.322 2.8-0.32 9.333 0 14.667 10.667 14.667 10.667-0.809 1.514-1.775 2.94-2.88 4.253M18.827 18.827c-0.366 0.393-0.808 0.708-1.299 0.927s-1.020 0.336-1.557 0.346c-0.537 0.009-1.071-0.089-1.569-0.291s-0.95-0.5-1.33-0.88-0.679-0.832-0.88-1.33c-0.201-0.498-0.3-1.032-0.29-1.569s0.127-1.067 0.346-1.557 0.534-0.932 0.927-1.298"></path>
<path stroke-linejoin="round" stroke-linecap="round" stroke-miterlimit="4" stroke-width="3.2" d="M1.333 1.333l29.333 29.333"></path>
</symbol>
</defs>
</svg>
